<svg t="1731482222292" class="icon" viewBox="0 0 1260 1024" version="1.1"
  xmlns="http://www.w3.org/2000/svg" p-id="9320" width="16" height="16">
  <path d="M623.252981 571.269287c0-31.347742 8.112607-42.059534 8.112606-42.059534-0.157526 0.157526 131.534497-68.839012 128.935313-286.934236C756.756557 155.163449 701.386047 0 530.706253 0h-9.766633c-178.556111 0-226.050304 155.163449-229.67341 242.275517C289.060841 447.532344 420.201523 529.288516 420.201523 529.288516s15.910161 17.564187 15.910161 48.833167c0 7.088685-12.602108 21.659872-21.10853 28.118452-73.24975 56.709484-337.106376 113.891547-354.276748 236.13199-13.389739 51.826167-91.601569 133.976156 168.789477 167.135451 71.75325 9.057765 169.262057 14.492424 300.954081 14.492424 604.192293 0 479.195139-113.261441 462.33982-179.737559-16.934082-122.082917-282.996077-181.312822-356.245827-238.022306-8.427659-6.45858-13.310976-27.8034-13.310976-34.892085z m320.093531 32.135374c-6.931159-5.119606-10.790555-22.368741-10.790555-28.118452 0-25.204215 6.616106-33.868164 6.616107-33.868164s107.039151-65.609722 105.148834-230.776094c-2.993001-70.099223-48.124298-194.938851-187.22006-194.938851h-7.876317c-30.087532 0-55.212984 5.434659-76.794093 14.492423 29.851242 96.484886 65.452196 273.465733-85.064225 392.004308-59.072379 85.221752 137.678025 135.236366 107.117914 121.92539 177.926006 77.424198 225.656488 136.732867 238.809937 198.168141 10.948081 51.196062 17.091608 82.543804 17.091609 82.543804s133.267287-19.690793 167.765556-44.816245c1.4965-27.173294 5.907238-56.630721-1.417737-85.064225-13.941081-98.296439-213.684486-145.869395-273.38697-191.552035z" p-id="9321"></path>
</svg>