<svg t="1731463947251" class="icon" viewBox="0 0 1024 1024" version="1.1"
  xmlns="http://www.w3.org/2000/svg" p-id="5460" width="16" height="16">
  <path d="M774.826667 650.296889c27.875556-47.672889 75.662222-71.509333 123.448889-67.527111 7.964444-27.875556 11.946667-59.619556 11.946666-91.420445 0-27.875556-3.982222-55.637333-7.964444-79.473777-47.786667 7.964444-99.555556-19.911111-127.431111-67.584-27.875556-47.672889-23.893333-107.292444 7.964444-143.075556A426.382222 426.382222 0 0 0 635.448889 113.777778c-15.928889 47.672889-63.715556 79.473778-123.448889 79.473778-59.733333 0-103.537778-31.800889-123.448889-79.473778-55.751111 19.911111-103.537778 51.655111-147.342222 91.420444 31.857778 39.708444 35.84 95.402667 7.964444 143.075556-27.875556 47.672889-79.644444 71.509333-127.431111 63.601778-3.982222 27.818667-7.964444 55.637333-7.964444 83.456 0 31.800889 3.982222 59.619556 11.946666 87.438222 47.786667-3.982222 95.573333 19.911111 123.448889 67.527111 23.893333 47.729778 23.893333 99.384889-3.982222 139.150222 43.804444 39.708444 91.591111 67.527111 147.342222 83.456 19.911111-43.747556 63.715556-71.566222 119.466667-71.566222s99.555556 27.875556 119.466667 71.566222c55.751111-15.928889 103.537778-47.729778 147.342222-83.456-27.875556-39.765333-31.857778-91.420444-3.982222-139.150222z m-262.826667 15.928889a169.813333 169.813333 0 0 1-171.235556-170.894222A169.813333 169.813333 0 0 1 512 324.437333c95.573333 0 171.235556 75.491556 171.235556 170.894223A169.813333 169.813333 0 0 1 512 666.168889z" p-id="5461"></path>
</svg>